<?xml version="1.0" standalone="no"?>
<!DOCTYPE svg PUBLIC "-//W3C//DTD SVG 20010904//EN"
 "http://www.w3.org/TR/2001/REC-SVG-20010904/DTD/svg10.dtd">
<svg version="1.0" xmlns="http://www.w3.org/2000/svg"
 width="148.000000pt" height="148.000000pt" viewBox="0 0 148.000000 148.000000"
 preserveAspectRatio="xMidYMid meet">
<metadata>
Created by potrace 1.14, written by Peter Selinger 2001-2017
</metadata>
<g transform="translate(0.000000,148.000000) scale(0.100000,-0.100000)"
fill="#000000" stroke="none">
<path d="M125 1468 c-44 -15 -101 -74 -114 -117 -16 -54 -16 -1168 0 -1222 14
-45 71 -102 118 -118 22 -7 128 -11 297 -11 l264 0 0 45 0 45 -260 0 c-283 0
-305 4 -328 55 -9 19 -12 175 -12 596 0 622 -1 614 57 638 21 8 161 11 515 9
l487 -3 23 -23 c23 -22 23 -27 28 -314 l5 -291 43 41 43 41 -3 264 -3 264 -28
36 c-57 75 -33 72 -597 74 -335 1 -515 -2 -535 -9z"/>
<path d="M280 1155 l0 -45 370 0 370 0 0 45 0 45 -370 0 -370 0 0 -45z"/>
<path d="M280 975 l0 -45 371 0 370 0 -3 43 -3 42 -367 3 -368 2 0 -45z"/>
<path d="M280 785 l0 -45 370 0 370 0 0 45 0 45 -370 0 -370 0 0 -45z"/>
<path d="M1285 730 c-27 -11 -467 -458 -483 -490 -11 -23 -63 -233 -59 -236 1
-1 48 9 103 22 73 16 117 33 155 58 30 19 148 128 262 243 256 257 253 251
155 348 -66 66 -87 75 -133 55z m-25 -215 l65 -65 -145 -146 c-80 -80 -158
-155 -173 -166 l-29 -21 -59 59 c-32 32 -59 63 -59 68 0 10 320 336 330 336 3
0 35 -29 70 -65z"/>
<path d="M280 605 l0 -45 186 0 185 0 -3 43 -3 42 -182 3 -183 2 0 -45z"/>
</g>
</svg>
